<svg xmlns="http://www.w3.org/2000/svg" width="670.2" height="558.421" viewBox="0 0 670.2 558.421">
  <g id="undraw_laravel_and_vue_-59-tp" transform="translate(0 -83.6)">
    <path id="Path_8" data-name="Path 8" d="M837.923,731.743c0,33.669-146.923,96.3-331.994,96.3S168.5,769.295,168.5,735.626s152.359-29.51,337.43-29.51S837.923,698.074,837.923,731.743Z" transform="translate(-168.5 -186.02)" fill="#3f3d56"/>
    <path id="Path_9" data-name="Path 9" d="M837.923,731.743c0,33.669-146.923,96.3-331.994,96.3S168.5,769.295,168.5,735.626s152.359-29.51,337.43-29.51S837.923,698.074,837.923,731.743Z" transform="translate(-168.5 -186.02)" fill="#dbdbdb" opacity="0.1"/>
    <ellipse id="Ellipse_1" data-name="Ellipse 1" cx="335.1" cy="60.963" rx="335.1" ry="60.963" transform="translate(0 488.255)" fill="#5e6076"/>
    <path id="Path_10" data-name="Path 10" d="M594.859,440.238V603.279l27.272,44.445,2.076,3.38H731.813l2.174-210.867Z" transform="translate(-132.896 -98.352)" fill="#81808c"/>
    <path id="Path_11" data-name="Path 11" d="M594.859,440.238V603.279l27.272,44.445L623.8,440.238Z" transform="translate(-132.896 -98.352)" opacity="0.1"/>
    <path id="Path_12" data-name="Path 12" d="M220.324,434.639V597.68l-27.272,44.445-2.076,3.38H83.369L81.195,434.639Z" transform="translate(-18.14 -97.101)" fill="#81808c"/>
    <path id="Path_13" data-name="Path 13" d="M252.021,434.639V597.68l-27.272,44.445-1.674-207.486Z" transform="translate(-49.836 -97.101)" opacity="0.1"/>
    <path id="Path_14" data-name="Path 14" d="M647.775,421.06v9.783H63v-14.13l54.347-28.26h482.6Z" transform="translate(-14.075 -86.783)" fill="#00d4ce"/>
    <path id="Path_15" data-name="Path 15" d="M647.775,429.189v9.783H63v-14.13Z" transform="translate(-14.075 -94.913)" opacity="0.1"/>
    <path id="Path_16" data-name="Path 16" d="M160.14,491.235H134.053l-10.869-7.609H172.1Z" transform="translate(-27.52 -108.045)" opacity="0.1"/>
    <path id="Path_17" data-name="Path 17" d="M160.14,531.824H134.053l-10.869-7.609H172.1Z" transform="translate(-27.52 -117.113)" opacity="0.1"/>
    <path id="Path_18" data-name="Path 18" d="M160.14,589.209H134.053L123.184,581.6H172.1Z" transform="translate(-27.52 -129.933)" opacity="0.1"/>
    <path id="Path_19" data-name="Path 19" d="M160.14,646.593H134.053l-10.869-7.608H172.1Z" transform="translate(-27.52 -142.754)" opacity="0.1"/>
    <path id="Path_20" data-name="Path 20" d="M681,496.833h26.087l10.869-7.608H669.039Z" transform="translate(-149.468 -109.296)" opacity="0.1"/>
    <path id="Path_21" data-name="Path 21" d="M681,537.422h26.087l10.869-7.608H669.039Z" transform="translate(-149.468 -118.364)" opacity="0.1"/>
    <path id="Path_22" data-name="Path 22" d="M681,594.807h26.087l10.869-7.608H669.039Z" transform="translate(-149.468 -131.184)" opacity="0.1"/>
    <path id="Path_23" data-name="Path 23" d="M681,652.192h26.087l10.869-7.609H669.039Z" transform="translate(-149.468 -144.004)" opacity="0.1"/>
    <path id="Path_24" data-name="Path 24" d="M697.162,389.668l-3.626,23.149s-17.849,9.482-5.3,9.761,71.676,0,71.676,0,11.435,0-6.693-10.04l-3.626-24.264Z" transform="translate(-283.614 -115.2)" fill="#c2c2c2"/>
    <path id="Path_25" data-name="Path 25" d="M685.714,422.327a49.365,49.365,0,0,1,7.824-5.179L697.163,394l52.432.049,3.626,22.82a47.613,47.613,0,0,1,8.378,5.513c2.328-.531,4.873-2.505-8.378-9.844L749.6,388.274l-52.432,1.394-3.626,23.148S678.539,420.786,685.714,422.327Z" transform="translate(-283.615 -115.2)" opacity="0.1"/>
    <rect id="Rectangle_8" data-name="Rectangle 8" width="236.224" height="164.548" rx="10.695" transform="translate(321.373 113.128)" fill="#0e0e10"/>
    <rect id="Rectangle_9" data-name="Rectangle 9" width="220.327" height="123.272" transform="translate(329.321 121.913)" fill="#f2f2f2"/>
    <circle id="Ellipse_2" data-name="Ellipse 2" cx="1.394" cy="1.394" r="1.394" transform="translate(438.09 116.614)" fill="#f2f2f2"/>
    <path id="Path_26" data-name="Path 26" d="M818.549,364.931v14.424a8.3,8.3,0,0,1-8.307,8.305H590.63a8.3,8.3,0,0,1-8.306-8.307V364.931Z" transform="translate(-260.951 -109.985)" fill="#c2c2c2"/>
    <circle id="Ellipse_3" data-name="Ellipse 3" cx="5.299" cy="5.299" r="5.299" transform="translate(434.186 261.082)" fill="#f2f2f2"/>
    <path id="Path_27" data-name="Path 27" d="M512.117,412.308V415.1H362.071v-2.231l.207-.558,3.7-10.04H509.049Z" transform="translate(-80.889 -89.869)" fill="#3f3d56"/>
    <path id="Path_28" data-name="Path 28" d="M786.017,445.56c-.273,1.169-1.305,2.4-3.637,3.567-8.367,4.183-25.379-1.116-25.379-1.116s-13.108-2.231-13.108-8.088a10.456,10.456,0,0,1,1.149-.683c3.518-1.861,15.181-6.453,35.862.194a8.625,8.625,0,0,1,3.931,2.576,4.113,4.113,0,0,1,1.183,3.549Z" transform="translate(-297.047 -125.852)" fill="#3f3d56"/>
    <path id="Path_29" data-name="Path 29" d="M786.347,445.56c-10.241,3.924-19.369,4.217-28.737-2.29a20.573,20.573,0,0,0-12.238-4.03c3.518-1.861,15.181-6.453,35.862.194a8.625,8.625,0,0,1,3.931,2.576,4.113,4.113,0,0,1,1.183,3.549Z" transform="translate(-297.377 -125.852)" opacity="0.1"/>
    <ellipse id="Ellipse_4" data-name="Ellipse 4" cx="3.626" cy="1.116" rx="3.626" ry="1.116" transform="translate(472.504 315.188)" fill="#f2f2f2"/>
    <path id="Path_30" data-name="Path 30" d="M512.117,415.2v2.789H362.071v-2.231l.207-.558Z" transform="translate(-80.889 -92.758)" opacity="0.1"/>
    <circle id="Ellipse_5" data-name="Ellipse 5" cx="29.702" cy="29.702" r="29.702" transform="translate(276.772 91.365)" fill="#ffb9b9"/>
    <path id="Path_32" data-name="Path 32" d="M534.957,210.537v46.9h48.461s-6.253-39.082-3.127-50.806Z" transform="translate(-250.369 -74.619)" fill="#ffb9b9"/>
    <path id="Path_33" data-name="Path 33" d="M613.56,282.015s-46.116-22.667-46.116-24.231-4.69-11.725-7.816-11.725-29.7-8.6-44.553,3.908l-1.563,10.161-57.059,37.518,15.633,57.059s10.161,10.943,7.035,18.759,2.345,47.68,2.345,47.68l122.716-3.908V364.086s3.908-12.506,6.253-16.414,0-15.633,0-15.633l18.759-23.449S626.847,286.7,613.56,282.015Z" transform="translate(-232.83 -82.784)" fill="#d0cde1"/>
    <path id="Path_34" data-name="Path 34" d="M454.753,332.466l3.517-19.15s-20.322,88.325-17.978,98.486,19.541,25.794,21.886,26.576,24.231-67.221,24.231-67.221Z" transform="translate(-229.178 -98.454)" opacity="0.1"/>
    <path id="Path_35" data-name="Path 35" d="M464.513,310.3l-13.288,2.345s-20.322,88.325-17.977,98.486,19.541,25.794,21.886,26.576,24.231-67.221,24.231-67.221Z" transform="translate(-227.604 -97.779)" fill="#d0cde1"/>
    <path id="Path_36" data-name="Path 36" d="M658.107,340.3l6.644-12.9s9.38,88.325,3.127,96.923-30.988,11.815-30.988,11.815l-.277-64.185Z" transform="translate(-273.08 -101.602)" opacity="0.1"/>
    <path id="Path_37" data-name="Path 37" d="M660.629,314.323l10.161,10.161s9.38,88.325,3.127,96.923-30.988,11.815-30.988,11.815l-.277-64.185Z" transform="translate(-274.429 -98.678)" fill="#d0cde1"/>
    <path id="Path_38" data-name="Path 38" d="M462.69,486.792s-22.667-8.6-26.576,7.816,9.379,89.888,9.379,89.888,8.6,55.5,14.069,57.059,29.7,2.345,33.61-4.69-11.725-78.945-11.725-78.945l90.67-1.563s-5.471,62.531-8.6,68-3.127,24.231,0,24.231,37.518-1.563,39.863-6.253,15.633-110.21,15.633-110.21,10.943-36.737-1.563-34.392S462.69,486.792,462.69,486.792Z" transform="translate(-228.126 -136.706)" fill="#3f3d56"/>
    <path id="Path_39" data-name="Path 39" d="M633.883,683.005s7.816-5.471,11.724,0,5.471,11.725-11.724,21.1-30.484,7.035-30.484,5.471V686.914Z" transform="translate(-265.659 -180.501)" fill="#2f2e41"/>
    <path id="Path_40" data-name="Path 40" d="M464.424,679.986s-7.816-5.471-11.725,0-5.472,11.724,11.725,21.1,30.484,7.035,30.484,5.471V683.894Z" transform="translate(-231.424 -179.827)" fill="#2f2e41"/>
    <path id="Path_41" data-name="Path 41" d="M553.671,144.308a25.122,25.122,0,0,0-8.724,1.243,33.726,33.726,0,0,0-6.215,3.288l-13.113,8.155a6.141,6.141,0,0,0-3.7,5.723l-1.639,12.272c-.414,3.1-.795,6.409.592,9.209,1.157,2.337,3.364,3.936,5.178,5.809a21.323,21.323,0,0,1,5.62,10.92c.938,5.124.338,11.294,4.392,14.563,2.2,1.77,5.188,2.105,8,2.27a119.429,119.429,0,0,0,23.065-.888,9.179,9.179,0,0,0,3.485-.976,9.571,9.571,0,0,0,3.057-3.636c2.928-4.985,5.946-10.289,5.915-16.071-.016-2.86-.748-5.932.626-8.441a33,33,0,0,1,2.359-3.064c1.7-2.389,2.031-5.459,2.309-8.379.885-9.326-.04-16.423-6.913-22.992C571.551,147.18,562.421,144.364,553.671,144.308Z" transform="translate(-247.005 -60.693)" fill="#818181"/>
    <path id="Path_42" data-name="Path 42" d="M293.433,569.7,267.346,702.31h13.043l25-130.433Z" transform="translate(-59.727 -127.276)" fill="#2f2e41"/>
    <path id="Path_43" data-name="Path 43" d="M408.708,582.449l16.3,152.172h10.869L426.1,578.1Z" transform="translate(-91.308 -129.152)" fill="#2f2e41"/>
    <path id="Path_44" data-name="Path 44" d="M466.093,577.476l22.826,101.086h10.869L478.049,575.3Z" transform="translate(-104.128 -128.526)" fill="#2f2e41"/>
    <path id="Path_45" data-name="Path 45" d="M353.185,578.1l-3.261,80.434h8.7l6.522-80.434Z" transform="translate(-78.175 -129.152)" fill="#2f2e41"/>
    <path id="Path_46" data-name="Path 46" d="M444.779,553.339s-17.391-116.3,31.521-119.563,118.476,0,118.476,0,40.217-3.261,28.26,119.563c0,0,10.869,35.869-86.955,32.608S444.779,553.339,444.779,553.339Z" transform="translate(-229.552 -125.041)" fill="#00d4ce"/>
    <path id="Path_47" data-name="Path 47" d="M1004.006,636.051c0,20.281-12.057,27.362-26.929,27.362s-26.929-7.081-26.929-27.362,26.929-46.082,26.929-46.082S1004.006,615.771,1004.006,636.051Z" transform="translate(-343.125 -160.26)" fill="#639b61"/>
    <path id="Path_48" data-name="Path 48" d="M812.223,606.7l11.477-21-11.435,18.335.124-7.632,7.91-15.193-7.878,13.173.223-13.726,8.471-12.095L812.68,578.5l.14-25.169-.838,31.892-8.578-13.13,8.474,15.821-.8,15.33-.024-.407-9.929-13.872,9.9,15.31-.1,1.917-.018.029.009.158-2.036,20.457h2.72l.326-1.653,9.874-15.273-9.85,13.763Z" transform="translate(-178.976 -123.617)" fill="#3f3d56"/>
    <path id="Path_49" data-name="Path 49" d="M826.847,691.058H794.742l-8.3-46.9h46.9Z" transform="translate(-175.697 -143.91)" fill="#2f2e41"/>
    <rect id="Rectangle_10" data-name="Rectangle 10" width="66.787" height="78.302" transform="translate(112.606 230.105)" fill="#81808c"/>
    <rect id="Rectangle_11" data-name="Rectangle 11" width="46.06" height="54.001" transform="translate(122.97 242.255)" fill="#f2f2f2"/>
  </g>
</svg>
