<?xml version="1.0" encoding="utf-8"?>
<!-- Generator: Adobe Illustrator 23.0.5, SVG Export Plug-In . SVG Version: 6.00 Build 0)  -->
<svg version="1.1" id="Layer_1" xmlns="http://www.w3.org/2000/svg" xmlns:xlink="http://www.w3.org/1999/xlink" x="0px" y="0px"
	 viewBox="0 0 417.05 150.26" style="enable-background:new 0 0 417.05 150.26;" xml:space="preserve">
<style type="text/css">
	.st0{display:none;fill:#182434;}
	.st1{display:none;fill:#DEDA2A;}
	.st2{fill:#45C1C2;}
	.st3{fill:#182434;stroke:#182434;stroke-width:1.4558;stroke-miterlimit:10;}
	.st4{fill:#182434;}
</style>
<rect x="-25.93" y="-105.69" class="st0" width="500" height="500"/>
<path class="st1" d="M187.97,104.53c0-4.15-0.09-7.88,0.02-11.6c0.3-10.95-3.59-19.99-11.59-27.55
	c-9.44-8.91-14.57-20.11-15.78-33.01c-3.15-33.73,26.68-61.9,60.24-56.44c20.82,3.38,35.27,15.46,41.82,35.51
	c6.57,20.11,1.8,38.17-12.76,53.57c-1.62,1.72-3.34,3.35-4.84,5.17c-8.43,10.19-7.35,22.32-7.08,34.3c0.28,0.04,0.42,0.11,0.52,0.06
	c5.29-2.3,10.59-4.58,15.84-6.95c0.45-0.2,0.86-1.09,0.84-1.63c-0.14-3.28-0.37-6.55-0.66-9.82c-0.13-1.46,0.29-2.5,1.48-3.39
	c5.67-4.25,10.49-9.32,14.46-15.19c0.78-1.15,1.72-1.67,3.12-1.61c3.21,0.14,6.43,0.14,9.65,0.31c1.15,0.06,1.76-0.23,2.18-1.37
	c2.08-5.59,4.23-11.16,6.43-16.7c0.43-1.09,0.34-1.75-0.59-2.51c-2.44-1.99-4.88-4-7.14-6.19c-0.75-0.72-1.45-2.05-1.34-3
	c0.79-7.17,0.64-14.29-0.56-21.38c-0.26-1.53,0.23-2.63,1.35-3.65c2.32-2.13,4.54-4.38,6.86-6.51c0.75-0.69,0.87-1.26,0.46-2.19
	c-2.49-5.57-4.95-11.15-7.35-16.75c-0.41-0.97-0.93-1.25-1.92-1.16c-3.2,0.29-6.42,0.47-9.62,0.76c-1.53,0.14-2.61-0.34-3.54-1.58
	c-4.21-5.62-9.22-10.41-15.05-14.33c-1.37-0.92-1.83-2.07-1.75-3.66c0.16-3.08,0.15-6.17,0.32-9.25c0.07-1.19-0.34-1.75-1.44-2.16
	c-5.58-2.09-11.15-4.24-16.7-6.43c-1.02-0.41-1.64-0.3-2.35,0.57c-1.74,2.14-3.74,4.08-5.34,6.31c-1.48,2.06-3.25,2.47-5.61,2.18
	c-6.56-0.8-13.11-0.52-19.61,0.64c-1.47,0.26-2.53-0.09-3.52-1.15c-2.2-2.35-4.4-4.7-6.71-6.93c-0.46-0.45-1.56-0.74-2.11-0.51
	c-5.69,2.37-11.33,4.84-16.95,7.38c-0.5,0.23-1.01,1.15-0.99,1.73c0.12,3.28,0.36,6.55,0.65,9.82c0.13,1.46-0.32,2.5-1.5,3.38
	c-5.63,4.2-10.41,9.22-14.34,15.04c-0.86,1.27-1.88,1.86-3.44,1.78c-3.15-0.17-6.3-0.18-9.45-0.35c-1.15-0.06-1.75,0.25-2.17,1.39
	c-2.08,5.59-4.21,11.16-6.44,16.7c-0.5,1.25-0.19,1.87,0.74,2.63c2.38,1.96,4.77,3.92,6.99,6.07c0.75,0.72,1.46,2.05,1.35,3
	c-0.81,7.17-0.65,14.29,0.56,21.38c0.26,1.53-0.23,2.63-1.35,3.65c-2.27,2.08-4.43,4.3-6.71,6.38c-0.84,0.77-1.05,1.39-0.54,2.5
	c2.46,5.43,4.86,10.9,7.18,16.39c0.51,1.22,1.18,1.48,2.38,1.36c3.13-0.31,6.28-0.48,9.42-0.76c1.45-0.13,2.49,0.36,3.37,1.53
	c4.21,5.62,9.22,10.41,15.04,14.34c1.36,0.92,1.86,2.06,1.78,3.65c-0.16,3.15-0.25,6.3-0.26,9.45c0,0.58,0.38,1.5,0.82,1.68
	C179,101.12,183.28,102.73,187.97,104.53z"/>
<g>
	<g>
		<path class="st2" d="M61.91,122.59c0-20.35,0-40.53,0-60.73c-0.44-0.18-0.85-0.34-1.25-0.52c-3.6-1.66-5.49-5.45-4.68-9.35
			c0.76-3.67,4.22-6.46,8.04-6.49c3.81-0.03,7.22,2.67,8.11,6.4c0.9,3.77-0.99,7.8-4.6,9.37c-1.14,0.49-1.38,1.09-1.38,2.21
			c0.03,19.14,0.02,38.27,0.02,57.41c0,0.54,0.05,1.08,0.08,1.69c1.24,0,2.37,0,3.66,0c0-0.68,0-1.28,0-1.87c0-8.1,0-16.2,0-24.29
			c0-5.79,2.7-8.82,8.43-9.47c2.28-0.26,3.77-1.59,4.13-3.68c0.18-1.03,0.01-1.66-1.15-2.15c-3.74-1.57-5.6-5.31-4.79-9.22
			c0.78-3.77,4.11-6.5,7.97-6.52c3.9-0.02,7.21,2.59,8.08,6.38c0.89,3.86-0.95,7.69-4.62,9.31c-1.03,0.46-1.33,1.01-1.38,2.08
			c-0.18,4.16-3.39,7.5-7.42,7.86c-3.89,0.35-5.08,1.62-5.08,5.46c-0.01,8.1,0,16.2,0,24.29c0,0.59,0.06,1.17,0.09,1.79
			c2.29,0,4.42,0,6.86,0c0-2.69-0.22-5.31,0.04-7.87c0.84-8.28,4.52-15.16,10.54-20.9c7.31-6.97,11.39-15.56,12.31-25.63
			c2.49-27.21-23-49.22-49.44-42.48C39.33,29.52,29.25,39.2,25.2,54.28c-4.07,15.15-0.09,28.56,11.14,39.56
			c7.09,6.94,10.81,15.14,10.64,25.07c-0.02,1.2,0,2.41,0,3.63c2.45,0,4.69,0,6.98,0c0.03-0.54,0.07-0.98,0.07-1.41
			c0-8.38,0.01-16.75,0-25.13c-0.01-3.28-1.41-4.73-4.7-4.97c-4.26-0.31-7.47-3.41-7.76-7.69c-0.09-1.29-0.51-1.87-1.69-2.41
			c-3.45-1.58-5.27-5.51-4.43-9.15c0.89-3.87,4.21-6.49,8.19-6.47c3.81,0.02,7.14,2.67,7.96,6.33c0.86,3.82-0.92,7.62-4.39,9.34
			c-1.67,0.83-1.97,1.6-1.24,3.31c0.73,1.72,2.11,2.47,3.9,2.65c5.48,0.56,8.36,3.73,8.36,9.21c0.01,8.21,0,16.42,0,24.63
			c0,0.59,0,1.17,0,1.82C59.56,122.59,60.65,122.59,61.91,122.59z"/>
		<path class="st2" d="M47.04,140.95c1.38,0,2.64,0,3.91,0c4.6,0,9.2-0.02,13.81,0.01c1.56,0.01,2.49,0.84,2.49,2.08
			c0,1.24-0.92,2.03-2.48,2.1c-0.39,0.02-0.78,0-1.16,0c-4.94,0-9.87,0-14.81,0c-0.59,0-1.17,0-1.76,0
			c-0.02,3.04,1.58,5.04,4.15,5.06c8.48,0.07,16.97,0.07,25.45,0c2.67-0.02,4.37-2.2,4.07-5.07c-1.41,0-2.84,0.03-4.27-0.01
			c-1.54-0.04-2.5-0.89-2.49-2.1c0.01-1.22,0.97-2.04,2.51-2.08c1.42-0.03,2.85-0.01,4.34-0.01c0-1.77,0-3.35,0-5.1
			c-0.68,0-1.28,0-1.87,0c-4.44,0-8.87,0-13.31,0c-0.39,0-0.78,0.02-1.16-0.01c-1.33-0.1-2.26-0.69-2.23-2.15
			c0.03-1.46,1-2.03,2.33-2.04c4.82-0.02,9.65-0.01,14.47-0.01c0.58,0,1.17,0,1.76,0c0-1.72,0-3.19,0-4.72c-11.28,0-22.45,0-33.69,0
			c0,1.6,0,3.11,0,4.72c1.67,0,3.22-0.02,4.77,0.01c1.67,0.03,2.66,0.85,2.55,2.17c-0.12,1.53-1.15,2.03-2.54,2.03
			c-1.59,0-3.18,0-4.83,0C47.04,137.6,47.04,139.14,47.04,140.95z"/>
		<path class="st2" d="M64,49.73c-2.24,0.04-4.1,1.98-4.03,4.21c0.07,2.17,1.93,3.98,4.09,3.99c2.22,0.01,4.14-1.93,4.12-4.14
			C68.15,51.55,66.23,49.69,64,49.73z"/>
		<path class="st2" d="M43.58,77.68c2.25-0.02,4.09-1.9,4.05-4.16c-0.04-2.26-1.94-4.08-4.2-4.01c-2.19,0.07-3.97,1.9-3.97,4.08
			C39.45,75.85,41.32,77.7,43.58,77.68z"/>
		<path class="st2" d="M88.66,73.54c-0.02-2.28-1.9-4.1-4.16-4.04c-2.21,0.06-3.95,1.85-3.96,4.07c-0.01,2.29,1.81,4.12,4.08,4.11
			C86.89,77.67,88.68,75.84,88.66,73.54z"/>
		<path class="st2" d="M71.2,0c2.95,1.12,4.87,3.06,4.96,6.39c0.05,1.69,0.01,3.38,0.01,5.06c0,0.73,0,1.47,0,2.1
			c2.66,0.95,5.27,1.75,7.77,2.8c2.46,1.04,4.82,2.33,7.43,3.61c1.35-1.37,2.83-2.88,4.32-4.37c3-2.99,7.04-2.99,10.01,0.03
			c2.33,2.38,4.66,4.77,6.96,7.18c2.78,2.89,2.73,6.87-0.1,9.74c-1.37,1.39-2.74,2.77-4.15,4.12c-0.51,0.49-0.67,0.85-0.27,1.53
			c2.52,4.22,4.39,8.72,5.52,13.51c0.16,0.68,0.47,0.9,1.15,0.88c1.86-0.04,3.72-0.03,5.58-0.01c4.85,0.05,7.45,2.66,7.45,7.48
			c0,3.2,0.01,6.41,0,9.61c-0.02,4.02-2.83,6.83-6.87,6.88c-1.9,0.02-3.81-0.04-5.71,0.04c-0.39,0.01-1,0.39-1.09,0.71
			c-1.35,5-3.4,9.69-6.19,14.21c1.53,1.51,3.04,2.98,4.53,4.48c2.97,2.98,2.93,7.07-0.09,10c-2.39,2.32-4.79,4.64-7.2,6.94
			c-2.86,2.72-6.84,2.69-9.65-0.07c-2.06-2.03-4.1-4.09-6.09-6.08c1.1-1.09,2.13-2.11,3.27-3.25c1.88,1.92,3.78,3.87,5.7,5.8
			c1.42,1.43,2.45,1.45,3.88,0.08c2.29-2.18,4.56-4.38,6.82-6.58c1.36-1.32,1.35-2.38-0.02-3.76c-1.77-1.78-3.56-3.54-5.33-5.33
			c-1.21-1.22-1.33-2.14-0.38-3.57c3.26-4.92,5.52-10.26,6.79-16.02c0.35-1.59,1.11-2.16,2.76-2.17c2.6-0.02,5.19,0.01,7.79-0.01
			c1.81-0.01,2.54-0.72,2.55-2.5c0.02-3.25,0.02-6.49,0-9.74c-0.01-1.82-0.79-2.56-2.65-2.57c-2.73-0.01-5.45,0-8.18-0.01
			c-1.77-0.01-2.51-0.61-2.84-2.37c-1.03-5.6-3.21-10.75-6.2-15.56c-1.34-2.16-1.27-2.74,0.49-4.5c1.78-1.77,3.57-3.54,5.33-5.32
			c1.18-1.2,1.2-2.27,0.02-3.5c-2.27-2.38-4.57-4.74-6.87-7.08c-1.17-1.19-2.28-1.2-3.49-0.02c-1.79,1.76-3.56,3.54-5.34,5.31
			c-1.43,1.42-2.23,1.53-3.88,0.45c-4.86-3.19-10.12-5.41-15.8-6.66c-1.71-0.38-2.25-1.06-2.26-2.79c-0.01-2.64,0-5.28-0.01-7.92
			c-0.01-2.03-0.6-2.61-2.63-2.62c-3.03,0-6.06-0.01-9.09,0c-2.35,0-2.94,0.59-2.95,2.89c0,2.64,0.01,5.28-0.01,7.92
			c-0.01,1.73-0.6,2.46-2.28,2.77c-5.65,1.02-10.83,3.21-15.7,6.21c-2.15,1.33-2.7,1.26-4.5-0.53c-1.72-1.71-3.43-3.43-5.15-5.13
			c-1.39-1.37-2.4-1.41-3.79-0.08c-2.35,2.24-4.69,4.49-7.01,6.76c-1.19,1.16-1.18,2.28,0.01,3.48c1.79,1.82,3.62,3.6,5.42,5.41
			c1.28,1.29,1.39,2.19,0.4,3.68c-3.24,4.88-5.49,10.18-6.75,15.9c-0.37,1.66-1.12,2.23-2.84,2.24c-2.6,0.01-5.19-0.01-7.79,0.01
			c-1.72,0.01-2.48,0.74-2.49,2.43c-0.02,3.29-0.03,6.58,0,9.87c0.01,1.78,0.78,2.51,2.54,2.52c2.68,0.01,5.37-0.01,8.05,0.01
			c1.7,0.01,2.49,0.61,2.79,2.27c1.04,5.74,3.3,10.99,6.37,15.91c1.14,1.84,1.05,2.55-0.48,4.09c-1.84,1.84-3.69,3.66-5.51,5.51
			c-1.13,1.14-1.17,2.25-0.07,3.4c2.33,2.44,4.68,4.87,7.05,7.27c1.07,1.09,2.23,1.04,3.4-0.12c1.9-1.89,3.77-3.82,5.58-5.66
			c1.11,1.14,2.13,2.18,3.1,3.17c-2.02,2.07-4.07,4.5-6.45,6.54c-2.55,2.19-6.34,1.79-8.74-0.61c-2.5-2.52-4.97-5.07-7.42-7.64
			c-2.51-2.64-2.5-6.64,0.02-9.26c1.44-1.5,2.92-2.96,4.42-4.4c0.52-0.49,0.65-0.86,0.26-1.53c-2.52-4.22-4.39-8.72-5.52-13.51
			c-0.16-0.68-0.46-0.9-1.14-0.89c-1.9,0.04-3.81,0.02-5.71,0.01c-4.34-0.03-7.05-2.74-7.06-7.06c0-3.38-0.02-6.75,0-10.13
			c0.02-3.88,2.81-6.69,6.71-6.76c1.95-0.04,3.9,0.03,5.84-0.04c0.39-0.01,1.02-0.38,1.11-0.7c1.35-5,3.39-9.7,6.22-14.27
			c-1.51-1.48-3.03-2.95-4.52-4.43c-2.99-2.97-2.97-7.04,0.05-9.99c2.42-2.36,4.85-4.7,7.29-7.03c2.74-2.61,6.75-2.61,9.46,0.02
			c1.67,1.63,3.28,3.32,4.87,4.93c2.62-1.26,5.05-2.57,7.6-3.6c2.51-1.02,5.13-1.76,7.84-2.67c0-2.08,0-4.28,0-6.49
			c0-3.77,1.38-5.72,4.93-7.03C57.52,0.19,57.6,0.08,57.7,0C62.2,0,66.7,0,71.2,0z"/>
	</g>
	<g>
		<path class="st3" d="M160.47,54.91V23.8h-7.51v-0.87h16.16v0.87h-7.57v31.11H160.47z"/>
		<path class="st3" d="M175.01,54.91V22.93h16.57v0.87H176.1v13.85h12.04v0.87H176.1v15.53h15.49v0.87H175.01z"/>
		<path class="st3" d="M206.26,55.56c-1.71,0-3.26-0.15-4.63-0.46c-1.38-0.31-2.47-0.96-3.28-1.98c-0.81-1.01-1.22-2.54-1.22-4.6
			V29.53c0-2.09,0.41-3.63,1.22-4.63c0.81-0.99,1.93-1.64,3.35-1.95c1.42-0.31,2.99-0.46,4.7-0.46c1.76,0,3.32,0.16,4.7,0.49
			c1.38,0.32,2.47,0.98,3.28,1.98c0.81,0.99,1.22,2.52,1.22,4.57v4.76h-1.08v-4.98c0-1.73-0.35-3.02-1.05-3.87
			c-0.7-0.85-1.66-1.41-2.87-1.68c-1.22-0.27-2.64-0.41-4.26-0.41c-1.67,0-3.11,0.15-4.33,0.46c-1.22,0.31-2.15,0.9-2.81,1.79
			c-0.65,0.88-0.98,2.23-0.98,4.03v18.99c0,1.73,0.37,3.03,1.12,3.9c0.74,0.87,1.73,1.44,2.98,1.73c1.24,0.29,2.58,0.43,4.02,0.43
			c1.58,0,2.99-0.14,4.23-0.43c1.24-0.29,2.21-0.87,2.91-1.73c0.7-0.87,1.05-2.16,1.05-3.9v-3.95h1.08v3.84
			c0,2.09-0.41,3.63-1.22,4.63c-0.81,0.99-1.92,1.64-3.31,1.95C209.66,55.4,208.06,55.56,206.26,55.56z"/>
		<path class="st3" d="M225.06,54.91V22.93h1.08V37.7h16.84V22.93h1.08v31.98h-1.08V38.57h-16.84v16.34H225.06z"/>
		<path class="st3" d="M254.34,54.91V22.93h1.49l16.5,30.41V22.93h1.08v31.98H272l-16.57-30.57v30.57H254.34z"/>
		<path class="st3" d="M292.49,55.56c-3.29,0-5.68-0.51-7.17-1.54c-1.49-1.03-2.23-2.86-2.23-5.49V29.53c0-2.6,0.75-4.42,2.27-5.46
			c1.51-1.05,3.93-1.57,7.27-1.57c3.47,0,5.92,0.55,7.34,1.65c1.42,1.1,2.13,2.89,2.13,5.38v18.99c0,2.6-0.72,4.42-2.16,5.46
			C298.48,55.03,296.01,55.56,292.49,55.56z M292.56,54.69c3.16,0,5.35-0.49,6.59-1.46c1.24-0.97,1.86-2.6,1.86-4.87V29.69
			c0-2.24-0.62-3.85-1.86-4.84c-1.24-0.99-3.44-1.49-6.59-1.49c-3.11,0-5.29,0.49-6.53,1.46c-1.24,0.97-1.86,2.6-1.86,4.87v18.67
			c0,2.31,0.64,3.94,1.93,4.9C287.38,54.21,289.54,54.69,292.56,54.69z"/>
		<path class="st3" d="M311.76,54.91V22.93h1.08v31.11h13.39v0.87H311.76z"/>
		<path class="st3" d="M340.1,55.56c-3.29,0-5.68-0.51-7.17-1.54c-1.49-1.03-2.23-2.86-2.23-5.49V29.53c0-2.6,0.75-4.42,2.27-5.46
			c1.51-1.05,3.93-1.57,7.27-1.57c3.47,0,5.92,0.55,7.34,1.65c1.42,1.1,2.13,2.89,2.13,5.38v18.99c0,2.6-0.72,4.42-2.16,5.46
			C346.1,55.03,343.62,55.56,340.1,55.56z M340.17,54.69c3.16,0,5.35-0.49,6.59-1.46c1.24-0.97,1.86-2.6,1.86-4.87V29.69
			c0-2.24-0.62-3.85-1.86-4.84c-1.24-0.99-3.44-1.49-6.59-1.49c-3.11,0-5.29,0.49-6.53,1.46c-1.24,0.97-1.86,2.6-1.86,4.87v18.67
			c0,2.31,0.64,3.94,1.93,4.9C335,54.21,337.15,54.69,340.17,54.69z"/>
		<path class="st3" d="M368.17,55.56c-1.71,0-3.28-0.15-4.7-0.46c-1.42-0.31-2.56-0.96-3.42-1.98c-0.86-1.01-1.29-2.54-1.29-4.6
			V29.53c0-2.09,0.43-3.63,1.29-4.63c0.86-0.99,2.02-1.64,3.48-1.95c1.46-0.31,3.08-0.46,4.83-0.46c1.8,0,3.38,0.16,4.73,0.49
			c1.35,0.32,2.42,0.98,3.21,1.98c0.79,0.99,1.18,2.52,1.18,4.57v3.68h-1.08v-3.63c0-1.77-0.32-3.09-0.95-3.98
			c-0.63-0.88-1.56-1.48-2.77-1.79c-1.22-0.31-2.71-0.46-4.46-0.46c-1.71,0-3.2,0.15-4.46,0.46c-1.26,0.31-2.23,0.9-2.91,1.79
			c-0.68,0.88-1.01,2.21-1.01,3.98v18.56c0,1.91,0.37,3.34,1.12,4.27c0.74,0.94,1.76,1.55,3.04,1.84c1.29,0.29,2.69,0.43,4.23,0.43
			c2.3,0,4.24-0.58,5.82-1.73c1.58-1.15,2.37-2.76,2.37-4.82v-7.09h-7.24v-0.81h8.32v14.66h-1.08V51.5
			c-0.36,0.97-1.31,1.89-2.84,2.76C372.05,55.12,370.24,55.56,368.17,55.56z"/>
		<path class="st3" d="M387.1,54.91V22.93h1.08v31.98H387.1z"/>
		<path class="st3" d="M406.99,55.56c-1.71,0-3.26-0.15-4.63-0.46c-1.38-0.31-2.47-0.96-3.28-1.98c-0.81-1.01-1.22-2.54-1.22-4.6
			V29.53c0-2.09,0.41-3.63,1.22-4.63c0.81-0.99,1.93-1.64,3.35-1.95c1.42-0.31,2.99-0.46,4.7-0.46c1.76,0,3.32,0.16,4.7,0.49
			c1.38,0.32,2.47,0.98,3.28,1.98c0.81,0.99,1.22,2.52,1.22,4.57v4.76h-1.08v-4.98c0-1.73-0.35-3.02-1.05-3.87
			c-0.7-0.85-1.66-1.41-2.87-1.68c-1.22-0.27-2.64-0.41-4.26-0.41c-1.67,0-3.11,0.15-4.33,0.46c-1.22,0.31-2.15,0.9-2.81,1.79
			c-0.65,0.88-0.98,2.23-0.98,4.03v18.99c0,1.73,0.37,3.03,1.12,3.9c0.74,0.87,1.74,1.44,2.98,1.73c1.24,0.29,2.58,0.43,4.02,0.43
			c1.58,0,2.99-0.14,4.23-0.43c1.24-0.29,2.21-0.87,2.91-1.73c0.7-0.87,1.05-2.16,1.05-3.9v-3.95h1.08v3.84
			c0,2.09-0.41,3.63-1.22,4.63c-0.81,0.99-1.92,1.64-3.31,1.95C410.39,55.4,408.79,55.56,406.99,55.56z"/>
	</g>
	<g>
		<path class="st4" d="M203.22,111.83h2.71v8.87h-26.51v-8.87h4.06l-1.08-4.33h-9.2l-1.08,4.33h4.06v8.87h-23.13v-8.87h2.71
			l11.43-33.22h24.62L203.22,111.83z M174.68,101.77h6.22L178.13,91h-0.68L174.68,101.77z"/>
		<path class="st4" d="M282.68,87.49h-3.38v24.35h3.38v8.87h-25.56v-8.87h3.25V92.9l-11.5,27.81h-10.01l-11.84-27.54v18.67h3.25
			v8.87h-22.18v-8.87h3.38V87.49h-3.38v-8.87h30.98l7.03,16.88l6.76-16.88h29.83V87.49z"/>
		<path class="st4" d="M335.03,111.83h2.71v8.87h-26.51v-8.87h4.06l-1.08-4.33H305l-1.08,4.33h4.06v8.87h-23.13v-8.87h2.71
			l11.43-33.22h24.62L335.03,111.83z M306.49,101.77h6.22L309.94,91h-0.68L306.49,101.77z"/>
		<path class="st4" d="M378.86,78.61h22.18v8.87h-3.38v33.22h-19l-19.82-24.4v15.53h3.25v8.87H339.9v-8.87h3.38V87.49h-3.38v-8.87
			h24.42l17.79,21.7V87.49h-3.25V78.61z"/>
	</g>
</g>
</svg>
